<svg xmlns="http://www.w3.org/2000/svg" xmlns:xlink="http://www.w3.org/1999/xlink" viewBox="0 0 30 37.5" version="1.1" x="0px" y="0px"><g stroke="none" stroke-width="1" fill="#000" fill-rule="evenodd"><path d="M19.4316,10.9999 C18.0526,10.9999 16.9316,9.8789 16.9316,8.4999 C16.9316,7.1209 18.0526,5.9999 19.4316,5.9999 C20.8106,5.9999 21.9316,7.1209 21.9316,8.4999 C21.9316,9.8789 20.8106,10.9999 19.4316,10.9999 M26.9996,7.4999 L23.8106,7.4999 C23.3536,5.4999 21.5686,3.9999 19.4316,3.9999 C17.2946,3.9999 15.5096,5.4999 15.0526,7.4999 L2.9996,7.4999 C2.4476,7.4999 1.9996,7.9469 1.9996,8.4999 C1.9996,9.0529 2.4476,9.4999 2.9996,9.4999 L15.0526,9.4999 C15.5096,11.4999 17.2946,12.9999 19.4316,12.9999 C21.5686,12.9999 23.3536,11.4999 23.8106,9.4999 L26.9996,9.4999 C27.5526,9.4999 27.9996,9.0529 27.9996,8.4999 C27.9996,7.9469 27.5526,7.4999 26.9996,7.4999" fill="#000"/><path d="M11.084,24.0009 C9.705,24.0009 8.584,22.8799 8.584,21.5009 C8.584,20.1219 9.705,19.0009 11.084,19.0009 C12.463,19.0009 13.584,20.1219 13.584,21.5009 C13.584,22.8799 12.463,24.0009 11.084,24.0009 M27,20.5009 L15.463,20.5009 C15.006,18.5009 13.221,17.0009 11.084,17.0009 C8.947,17.0009 7.162,18.5009 6.705,20.5009 L3,20.5009 C2.447,20.5009 2,20.9479 2,21.5009 C2,22.0539 2.447,22.5009 3,22.5009 L6.705,22.5009 C7.162,24.5009 8.947,26.0009 11.084,26.0009 C13.221,26.0009 15.006,24.5009 15.463,22.5009 L27,22.5009 C27.553,22.5009 28,22.0539 28,21.5009 C28,20.9479 27.553,20.5009 27,20.5009" fill="#000"/></g></svg>